<?xml version="1.0" standalone="no"?>
<!DOCTYPE svg PUBLIC "-//W3C//DTD SVG 20010904//EN"
 "http://www.w3.org/TR/2001/REC-SVG-20010904/DTD/svg10.dtd">
<svg version="1.0" xmlns="http://www.w3.org/2000/svg"
 width="2560.000000pt" height="1383.000000pt" viewBox="0 0 2560.000000 1383.000000"
 preserveAspectRatio="xMidYMid meet">

<g transform="translate(0.000000,1383.000000) scale(0.100000,-0.100000)"
fill="#000000" stroke="none">
<path d="M5330 9320 l0 -1150 4000 0 4000 0 0 1150 0 1150 -4000 0 -4000 0 0
-1150z m4128 18 c-5 -408 -7 -419 -78 -501 -76 -86 -194 -113 -364 -82 l-96
17 0 63 0 63 62 -19 c135 -42 245 -34 292 22 39 46 46 110 46 409 l0 280 -165
0 -165 0 0 55 0 55 236 0 236 0 -4 -362z m917 -75 c93 -241 175 -453 182 -470
l13 -33 -75 0 c-73 0 -76 1 -86 28 -5 15 -26 69 -46 120 l-35 92 -210 -2 -211
-3 -43 -114 c-23 -62 -45 -115 -47 -118 -3 -2 -32 -3 -65 -1 l-60 3 177 450
c97 248 180 458 184 468 5 14 19 17 79 17 l73 0 170 -437z m522 72 c80 -198
148 -363 151 -367 4 -4 74 154 155 350 81 197 152 363 156 370 5 9 26 12 63
10 l56 -3 -183 -465 -183 -465 -77 0 -77 0 -159 415 c-88 228 -168 439 -179
468 l-20 53 76 -3 76 -3 145 -360z m1288 -72 c93 -241 175 -453 182 -470 l13
-33 -75 0 c-73 0 -76 1 -86 28 -5 15 -26 69 -46 120 l-35 92 -210 -2 -211 -3
-43 -114 c-23 -62 -45 -115 -47 -118 -3 -2 -32 -3 -65 -1 l-60 3 177 450 c97
248 180 458 184 468 5 14 19 17 79 17 l73 0 170 -437z"/>
<path d="M10033 9327 l-80 -212 160 -3 c88 -1 162 0 165 3 6 5 -148 414 -158
420 -4 3 -43 -91 -87 -208z"/>
<path d="M11843 9327 l-80 -212 160 -3 c88 -1 162 0 165 3 6 5 -148 414 -158
420 -4 3 -43 -91 -87 -208z"/>
</g>
</svg>
